<svg width="180" height="33" viewBox="0 0 180 33" fill="none" xmlns="http://www.w3.org/2000/svg">
<path d="M13.498 1.214C15.71 1.214 17.677 1.669 19.399 2.579C21.135 3.489 22.528 4.714 23.578 6.254C24.642 7.78 25.272 9.488 25.468 11.378H20.071C19.763 9.712 19.049 8.319 17.929 7.199C16.809 6.065 15.283 5.498 13.351 5.498C10.929 5.498 9.06 6.38 7.744 8.144C6.428 9.894 5.77 12.743 5.77 16.691C5.77 20.681 6.428 23.586 7.744 25.406C9.06 27.226 10.929 28.136 13.351 28.136C14.639 28.136 15.745 27.856 16.669 27.296C17.593 26.722 18.335 25.966 18.895 25.028C19.469 24.076 19.861 23.04 20.071 21.92H25.468C25.23 23.768 24.677 25.49 23.809 27.086C22.941 28.682 21.667 29.97 19.987 30.95C18.321 31.93 16.158 32.42 13.498 32.42C10.712 32.42 8.318 31.783 6.316 30.509C4.328 29.221 2.795 27.401 1.717 25.049C0.653 22.683 0.121 19.876 0.121 16.628C0.121 13.394 0.653 10.629 1.717 8.333C2.781 6.023 4.307 4.259 6.295 3.041C8.297 1.823 10.698 1.214 13.498 1.214ZM38.4503 32.42C37.0363 32.406 35.6993 32.126 34.4393 31.58C33.1793 31.034 32.1503 30.229 31.3523 29.165C30.5543 28.087 30.1553 26.757 30.1553 25.175V10.286H35.2793V24.587C35.2793 25.777 35.6503 26.75 36.3923 27.506C37.1483 28.248 38.2823 28.619 39.7943 28.619C41.1663 28.619 42.2653 28.262 43.0913 27.548C43.9173 26.82 44.3303 25.777 44.3303 24.419V10.286H49.4123V32H45.4853L44.9183 27.758C44.6523 28.948 44.1833 29.886 43.5113 30.572C42.8533 31.244 42.0763 31.72 41.1803 32C40.2983 32.28 39.3883 32.42 38.4503 32.42ZM55.0796 32V10.286H59.9726V14.99C60.5046 13.38 61.3586 12.127 62.5346 11.231C63.7246 10.321 65.0966 9.866 66.6506 9.866C66.9026 9.866 67.1406 9.88 67.3646 9.908C67.6026 9.936 67.7846 9.985 67.9106 10.055V14.948C67.7566 14.878 67.5536 14.829 67.3016 14.801C67.0636 14.773 66.8536 14.759 66.6716 14.759C64.5716 14.591 62.9616 14.92 61.8416 15.746C60.7356 16.558 60.1826 17.769 60.1826 19.379V32H55.0796ZM71.814 32V0.793999H76.854V13.436C77.386 12.624 78.163 11.868 79.185 11.168C80.221 10.454 81.607 10.097 83.343 10.097C84.729 10.097 85.996 10.363 87.144 10.895C88.292 11.427 89.209 12.197 89.895 13.205C90.581 14.199 90.924 15.389 90.924 16.775V32H85.8V17.636C85.8 16.516 85.401 15.648 84.603 15.032C83.805 14.416 82.811 14.108 81.621 14.108C80.403 14.108 79.311 14.423 78.345 15.053C77.393 15.669 76.917 16.6 76.917 17.846V32H71.814ZM102.412 32.42C100.326 32.42 98.5973 31.86 97.2253 30.74C95.8533 29.606 95.1673 28.01 95.1673 25.952C95.1673 23.558 96.0283 21.752 97.7503 20.534C99.4863 19.316 102.251 18.679 106.045 18.623L109.279 18.539V17.069C109.279 15.921 108.936 15.025 108.25 14.381C107.564 13.737 106.514 13.415 105.1 13.415C104.036 13.429 103.07 13.681 102.202 14.171C101.334 14.661 100.76 15.466 100.48 16.586H96.1333C96.2453 14.36 97.1343 12.687 98.8003 11.567C100.48 10.433 102.657 9.866 105.331 9.866C108.425 9.866 110.672 10.475 112.072 11.693C113.486 12.897 114.193 14.591 114.193 16.775V32H109.888L109.489 28.094C108.691 29.732 107.697 30.866 106.507 31.496C105.317 32.112 103.952 32.42 102.412 32.42ZM104.071 28.955C104.911 28.955 105.73 28.759 106.528 28.367C107.326 27.961 107.984 27.443 108.502 26.813C109.02 26.183 109.279 25.511 109.279 24.797V21.374L106.612 21.416C104.638 21.444 103.049 21.759 101.845 22.361C100.641 22.963 100.039 23.985 100.039 25.427C100.039 26.533 100.424 27.401 101.194 28.031C101.964 28.647 102.923 28.955 104.071 28.955ZM131.412 13.898H126.561L126.582 26.351C126.582 27.317 126.75 27.919 127.086 28.157C127.422 28.381 128.01 28.493 128.85 28.493H131.517V31.727C131.237 31.839 130.81 31.937 130.236 32.021C129.662 32.119 128.906 32.168 127.968 32.168C126.246 32.168 124.916 31.944 123.978 31.496C123.04 31.048 122.382 30.404 122.004 29.564C121.64 28.71 121.458 27.702 121.458 26.54V13.898H117.93V10.286H121.605L122.886 3.839H126.561V10.265H131.412V13.898ZM142.444 32.42C140.358 32.42 138.629 31.86 137.257 30.74C135.885 29.606 135.199 28.01 135.199 25.952C135.199 23.558 136.06 21.752 137.782 20.534C139.518 19.316 142.283 18.679 146.077 18.623L149.311 18.539V17.069C149.311 15.921 148.968 15.025 148.282 14.381C147.596 13.737 146.546 13.415 145.132 13.415C144.068 13.429 143.102 13.681 142.234 14.171C141.366 14.661 140.792 15.466 140.512 16.586H136.165C136.277 14.36 137.166 12.687 138.832 11.567C140.512 10.433 142.689 9.866 145.363 9.866C148.457 9.866 150.704 10.475 152.104 11.693C153.518 12.897 154.225 14.591 154.225 16.775V32H149.92L149.521 28.094C148.723 29.732 147.729 30.866 146.539 31.496C145.349 32.112 143.984 32.42 142.444 32.42ZM144.103 28.955C144.943 28.955 145.762 28.759 146.56 28.367C147.358 27.961 148.016 27.443 148.534 26.813C149.052 26.183 149.311 25.511 149.311 24.797V21.374L146.644 21.416C144.67 21.444 143.081 21.759 141.877 22.361C140.673 22.963 140.071 23.985 140.071 25.427C140.071 26.533 140.456 27.401 141.226 28.031C141.996 28.647 142.955 28.955 144.103 28.955ZM160.203 32V10.286H165.201V13.394C165.705 12.554 166.482 11.784 167.532 11.084C168.596 10.384 169.996 10.034 171.732 10.034C173.076 10.034 174.322 10.3 175.47 10.832C176.632 11.364 177.563 12.197 178.263 13.331C178.977 14.465 179.334 15.928 179.334 17.72V32H174.21V18.329C174.21 16.915 173.811 15.858 173.013 15.158C172.229 14.458 171.249 14.108 170.073 14.108C168.841 14.108 167.735 14.416 166.755 15.032C165.789 15.648 165.306 16.579 165.306 17.825V32H160.203Z" fill="#6BC07E"/>
</svg>
