<svg width="584" height="417" viewBox="0 0 584 417" fill="none" xmlns="http://www.w3.org/2000/svg">
<path d="M211.237 108.303C227.743 108.303 241.125 95.8519 241.125 80.4923C241.125 65.1326 227.743 52.6811 211.237 52.6811C194.73 52.6811 181.349 65.1326 181.349 80.4923C181.349 95.8519 194.73 108.303 211.237 108.303Z" fill="#FF6584"/>
<path d="M497.109 373.989C540.999 373.989 576.579 369.693 576.579 364.393C576.579 359.093 540.999 354.797 497.109 354.797C453.219 354.797 417.639 359.093 417.639 364.393C417.639 369.693 453.219 373.989 497.109 373.989Z" fill="#678B6F"/>
<path d="M215.922 417C259.812 417 295.392 412.704 295.392 407.404C295.392 402.104 259.812 397.807 215.922 397.807C172.032 397.807 136.452 402.104 136.452 407.404C136.452 412.704 172.032 417 215.922 417Z" fill="#678B6F"/>
<path d="M501.493 330.98C501.493 330.98 505.763 344.667 508.61 348.199C511.456 351.731 513.829 357.47 512.405 358.354C510.982 359.237 508.135 369.833 511.931 370.274C515.727 370.716 524.267 358.795 524.742 354.822C525.216 350.848 527.114 336.72 527.114 336.72C527.114 336.72 530.435 324.358 525.216 323.475C519.997 322.592 511.931 322.15 511.931 322.15L501.493 330.98Z" fill="#2F2E41"/>
<path d="M481.565 345.55C481.565 345.55 475.396 360.561 473.973 361.444C472.55 362.327 467.33 370.274 477.769 370.274C488.207 370.274 493.901 367.625 493.901 367.625L497.222 364.093C497.222 364.093 497.222 354.821 496.273 353.497C495.324 352.172 496.273 345.55 496.273 345.55H481.565Z" fill="#2F2E41"/>
<path d="M439.337 208.242C439.337 208.242 431.745 255.924 438.388 271.377C445.03 286.83 451.673 291.245 451.673 291.245L501.967 334.954C501.967 334.954 517.625 327.448 516.201 322.592C516.201 322.592 512.88 320.826 512.405 319.501C511.931 318.176 505.763 317.735 505.763 317.735C505.763 317.735 502.916 314.644 502.916 312.878C502.916 311.112 478.243 279.766 470.177 277.558C470.177 277.558 465.907 272.702 466.382 271.818C466.856 270.935 464.958 267.845 464.958 267.845L469.703 250.626L499.595 246.211C499.595 246.211 511.931 205.593 501.493 202.502C491.054 199.412 439.337 208.242 439.337 208.242Z" fill="#2F2E41"/>
<path d="M498.646 239.147L499.595 246.211C499.595 246.211 499.595 264.754 498.646 266.52C497.697 268.286 497.222 270.935 498.646 272.701C500.069 274.468 502.442 278.883 501.493 280.649C500.544 282.415 503.39 332.305 499.595 335.837C495.799 339.369 497.222 343.784 497.697 344.225C498.171 344.667 497.222 346.433 497.222 346.433C497.222 346.433 477.769 349.523 479.192 346.433C480.616 343.342 480.616 341.576 481.565 340.693C482.514 339.81 481.565 338.486 481.565 338.486C481.565 338.486 482.988 324.358 481.565 323.475C480.141 322.592 475.871 280.207 475.871 279.766C475.871 279.324 474.448 278.441 474.448 276.675C474.448 274.909 474.448 269.169 472.075 268.286C469.703 267.403 470.177 245.77 470.177 245.77L498.646 239.147Z" fill="#2F2E41"/>
<path d="M464.958 81.5297C464.958 81.5297 466.856 94.7749 472.55 97.4239C478.243 100.073 482.039 101.397 482.039 101.397L477.294 116.85L475.397 130.095H453.571L441.709 121.265L445.505 106.696L447.403 104.046C447.403 104.046 449.775 94.3334 447.877 91.2428C445.979 88.1523 464.958 81.5297 464.958 81.5297Z" fill="#FFB9B9"/>
<path d="M455.469 113.76L458.79 119.499C458.79 119.499 461.162 111.552 464.484 110.228C467.805 108.903 475.871 106.696 475.871 104.929C475.871 103.163 475.397 98.7484 477.294 98.7484C479.192 98.7484 497.697 104.046 500.544 105.812C503.391 107.579 503.865 109.345 503.865 109.345L498.646 160.118C498.646 160.118 506.237 183.959 503.865 193.231C501.493 202.502 499.595 203.827 493.901 205.151C488.207 206.476 491.529 202.061 474.922 206.476C458.315 210.891 447.877 209.566 444.081 209.566C440.285 209.566 437.913 211.332 436.964 211.774C436.015 212.215 436.49 209.566 439.811 205.593C443.132 201.619 441.709 194.997 441.709 194.997C441.709 194.997 437.913 183.517 440.285 179.102C442.658 174.687 445.979 168.948 443.132 167.182C440.285 165.416 436.49 152.171 436.49 152.171L426.051 117.733L447.403 104.046C447.403 104.046 446.454 110.228 449.775 111.552C453.096 112.877 455.469 113.76 455.469 113.76Z" fill="#D7F327"/>
<path d="M428.898 117.292H426.051C426.051 117.292 421.307 124.797 421.307 130.095C421.307 135.393 423.679 165.416 423.679 165.416L437.439 178.661L440.76 168.506L441.709 145.989L428.898 117.292Z" fill="#575A89"/>
<path d="M436.49 164.091C436.49 164.091 420.832 160.118 421.306 166.299C421.781 172.48 424.153 179.985 431.745 181.751C439.337 183.517 441.709 173.804 441.709 173.804C441.709 173.804 442.658 164.974 436.49 164.091Z" fill="#575A89"/>
<path d="M495.324 184.4C495.324 184.4 494.375 204.71 488.682 206.917L502.441 210.008C502.441 210.008 509.084 188.815 508.135 187.932C507.186 187.049 495.324 184.4 495.324 184.4Z" fill="#FFB9B9"/>
<path d="M413.942 143.061L422.091 139.748C422.241 139.687 422.404 139.654 422.568 139.651C422.732 139.648 422.896 139.676 423.049 139.731C423.202 139.787 423.342 139.871 423.46 139.977C423.579 140.083 423.674 140.21 423.74 140.35L432.798 159.646C432.961 159.992 432.969 160.383 432.821 160.735C432.673 161.086 432.381 161.368 432.009 161.52L424.369 164.625C423.997 164.776 423.576 164.784 423.198 164.646C422.821 164.508 422.517 164.237 422.355 163.891L413.296 144.595C413.163 144.312 413.157 143.991 413.278 143.703C413.399 143.416 413.638 143.184 413.942 143.061Z" fill="#2F2E41"/>
<path opacity="0.1" d="M413.942 143.061L422.091 139.748C422.241 139.687 422.404 139.654 422.568 139.651C422.732 139.648 422.896 139.676 423.049 139.731C423.202 139.787 423.342 139.871 423.46 139.977C423.579 140.083 423.674 140.21 423.74 140.35L432.798 159.646C432.961 159.992 432.969 160.383 432.821 160.735C432.673 161.086 432.381 161.368 432.009 161.52L424.369 164.625C423.997 164.776 423.576 164.784 423.198 164.646C422.821 164.508 422.517 164.237 422.355 163.891L413.296 144.595C413.163 144.312 413.157 143.991 413.278 143.703C413.399 143.416 413.638 143.184 413.942 143.061Z" fill="black"/>
<path d="M414.405 144.046L421.509 141.158C421.813 141.034 422.158 141.028 422.467 141.141C422.776 141.254 423.025 141.476 423.158 141.759L431.754 160.07C431.916 160.416 431.924 160.808 431.776 161.159C431.628 161.511 431.336 161.793 430.965 161.944L424.369 164.625C423.997 164.776 423.576 164.784 423.198 164.646C422.821 164.508 422.517 164.237 422.355 163.891L413.759 145.58C413.626 145.297 413.619 144.976 413.74 144.688C413.861 144.4 414.1 144.169 414.405 144.046Z" fill="#2F2E41"/>
<path d="M420.938 151.856C422.092 151.388 422.613 150.126 422.102 149.038C421.591 147.95 420.242 147.448 419.089 147.917C417.935 148.386 417.414 149.648 417.925 150.736C418.435 151.824 419.785 152.325 420.938 151.856Z" fill="#F2F2F2"/>
<path opacity="0.1" d="M498.883 115.305L501.967 111.111C501.967 111.111 513.354 127.446 512.405 138.484C511.457 149.522 510.508 149.963 510.508 151.729C510.508 153.495 508.135 153.495 510.508 155.703C512.88 157.91 516.201 161.001 514.303 162.767C512.406 164.533 510.982 164.533 511.457 166.74C511.76 168.344 511.919 169.968 511.931 171.597C511.931 171.597 507.898 178.882 506.475 178.882C505.051 178.882 491.529 190.582 491.529 189.257C491.529 187.932 492.952 178.661 492.952 177.336C492.952 176.012 493.427 171.597 494.375 170.272C495.324 168.948 495.324 169.389 494.375 168.065C493.427 166.74 493.427 168.065 493.427 166.74C493.427 165.416 493.901 163.65 492.478 163.208C491.054 162.767 489.631 163.208 490.58 161.001C491.529 158.793 490.58 157.027 490.105 157.027C489.631 157.027 487.258 156.586 488.682 155.261C490.105 153.937 485.835 128.329 485.835 128.329C485.835 128.329 486.547 121.927 498.883 115.305Z" fill="black"/>
<path d="M496.273 105.812L504.339 109.345C504.339 109.345 515.727 125.68 514.778 136.718C513.829 147.755 512.88 148.197 512.88 149.963C512.88 151.729 510.508 151.729 512.88 153.937C515.252 156.144 518.574 159.235 516.676 161.001C514.778 162.767 513.354 162.767 513.829 164.974C514.132 166.578 514.291 168.202 514.303 169.831C514.303 169.831 510.033 191.023 508.61 191.023C507.186 191.023 493.901 188.815 493.901 187.491C493.901 186.166 495.324 176.895 495.324 175.57C495.324 174.246 495.799 169.831 496.748 168.506C497.697 167.182 497.697 167.623 496.748 166.299C495.799 164.974 495.799 166.299 495.799 164.974C495.799 163.65 496.273 161.884 494.85 161.442C493.427 161.001 492.003 161.442 492.952 159.235C493.901 157.027 492.952 155.261 492.478 155.261C492.003 155.261 489.631 154.82 491.054 153.495C492.478 152.171 488.207 126.563 488.207 126.563C488.207 126.563 483.937 112.435 496.273 105.812Z" fill="#575A89"/>
<path d="M424.277 167.244C423.835 167.353 423.366 167.317 422.95 167.142C422.533 166.967 422.194 166.664 421.989 166.284C419.809 162.227 413.901 150.329 419.409 149.963C424.489 149.625 429.015 158.844 430.862 163.198C430.98 163.475 431.033 163.771 431.018 164.068C431.003 164.366 430.921 164.656 430.777 164.922C430.632 165.187 430.429 165.421 430.181 165.608C429.932 165.795 429.644 165.93 429.334 166.006L424.277 167.244Z" fill="#FFB9B9"/>
<path d="M451.673 93.8918C461.368 93.8918 469.228 86.5781 469.228 77.5561C469.228 68.5342 461.368 61.2205 451.673 61.2205C441.977 61.2205 434.117 68.5342 434.117 77.5561C434.117 86.5781 441.977 93.8918 451.673 93.8918Z" fill="#FFB9B9"/>
<path d="M445.222 68.1481C443.031 68.8514 440.77 69.3481 438.473 69.6306C436.744 69.8816 434.721 70.0101 433.506 68.8384C432.313 67.6886 432.506 65.7705 433.319 64.3631C434.133 62.9558 435.436 61.8524 436.413 60.5385C437.951 58.4721 438.858 55.7327 441.316 54.6917C442.335 54.3288 443.416 54.1409 444.507 54.1371C450.886 53.7587 457.526 53.4177 463.434 55.6892C465.654 56.4761 467.62 57.7781 469.147 59.4715C470.147 60.7184 470.918 62.1105 471.43 63.5916C473.009 67.9497 473.36 72.6118 472.45 77.1322C471.54 81.6526 469.399 85.8801 466.232 89.4108C464.079 87.6058 465.015 83.435 462.291 82.5153C461.397 82.2135 460.387 82.4235 459.471 82.1846C456.594 81.434 456.739 77.2965 454.343 75.6341C453.82 75.3722 453.357 75.0179 452.979 74.5911C452.769 74.1818 452.677 73.7283 452.714 73.2758C452.697 71.7258 453.479 67.7887 451.89 66.7263C450.273 65.6448 446.776 67.6259 445.222 68.1481Z" fill="#2F2E41"/>
<path d="M275.032 30.21H419.753V100.871H409.298V126.984L381.234 100.871H275.032V30.21Z" fill="#4DBDD6"/>
<path d="M0 203.544L139.215 166.753L159.961 234.725L149.904 237.383L157.571 262.504L122.908 244.518L20.7468 271.517L0 203.544Z" fill="#EF7F7F"/>
<path d="M159.818 162.373C159.818 162.373 155.112 175.509 157.726 178.428C160.341 181.347 142.041 169.67 142.041 169.67L151.975 158.967L159.818 162.373Z" fill="#A0616A"/>
<path d="M149.087 162.351C162.052 162.351 172.562 152.572 172.562 140.508C172.562 128.444 162.052 118.664 149.087 118.664C136.122 118.664 125.612 128.444 125.612 140.508C125.612 152.572 136.122 162.351 149.087 162.351Z" fill="#2F2E41"/>
<path d="M240.336 310.273L228.311 319.03L221.514 308.814L233.539 301.029L240.336 310.273Z" fill="#A0616A"/>
<path d="M223.343 376.196L226.481 390.305L235.369 401.495C235.369 401.495 259.42 408.306 243.212 411.712C227.003 415.117 223.343 409.279 223.343 409.279L211.841 400.035V412.685H204.521L202.953 394.684C202.953 394.684 201.907 389.332 206.612 383.494L207.658 374.737L223.343 376.196Z" fill="#2F2E41"/>
<path d="M162.693 201.537L166.876 223.917C166.876 223.917 211.318 219.538 214.455 227.809C217.592 236.08 218.638 238.512 218.638 238.512L209.749 241.431L205.567 234.134C204.293 233.714 202.94 233.54 201.591 233.624C200.243 233.708 198.927 234.047 197.724 234.62C193.541 236.566 156.942 241.431 154.328 235.107C151.714 228.782 144.394 205.429 144.394 205.429L155.374 197.158L162.693 201.537Z" fill="#A0616A"/>
<path opacity="0.1" d="M162.693 201.537L166.876 223.917C166.876 223.917 211.318 219.538 214.455 227.809C217.592 236.08 218.638 238.512 218.638 238.512L209.749 241.431L205.567 234.134C204.293 233.714 202.94 233.54 201.591 233.624C200.243 233.708 198.927 234.047 197.724 234.62C193.541 236.566 156.942 241.431 154.328 235.107C151.714 228.782 144.394 205.429 144.394 205.429L155.374 197.158L162.693 201.537Z" fill="black"/>
<path d="M187.267 266.244L190.927 277.92L200.338 322.679C200.338 322.679 201.384 355.762 202.952 359.655C204.521 363.547 204.521 364.033 202.952 365.493C201.384 366.952 198.247 371.817 202.952 374.737C207.658 377.656 224.389 381.061 224.912 377.656C225.435 374.25 225.435 368.898 224.912 366.466C224.389 364.033 226.48 326.085 226.48 326.085L220.206 268.19L198.77 258.946L187.267 266.244Z" fill="#2F2E41"/>
<path opacity="0.1" d="M187.267 266.244L190.927 277.92L200.338 322.679C200.338 322.679 201.384 355.762 202.952 359.655C204.521 363.547 204.521 364.033 202.952 365.493C201.384 366.952 198.247 371.817 202.952 374.737C207.658 377.656 224.389 381.061 224.912 377.656C225.435 374.25 225.435 368.898 224.912 366.466C224.389 364.033 226.48 326.085 226.48 326.085L220.206 268.19L198.77 258.946L187.267 266.244Z" fill="black"/>
<path d="M209.749 220.511L221.252 240.945C221.252 240.945 287.13 268.19 281.379 279.38C275.628 290.569 243.734 311.49 243.734 311.49C243.734 311.49 242.166 319.76 237.46 317.328C232.755 314.895 221.252 302.246 222.298 300.786C223.343 299.327 227.003 295.921 228.572 296.408C230.14 296.894 248.44 283.758 248.44 283.758L217.069 276.46C217.069 276.46 179.424 275.487 177.333 258.946C175.242 242.404 177.333 239.485 177.333 239.485L174.719 234.134L196.156 221.971L209.749 220.511Z" fill="#2F2E41"/>
<path d="M225.958 301.273L214.978 310.517C214.978 310.517 205.567 306.624 199.815 308.084C194.064 309.544 184.13 310.517 184.13 310.517L185.699 318.787L199.038 316.497L188.313 330.464C188.313 330.464 188.313 352.357 195.11 352.357C201.907 352.357 199.815 339.221 199.815 339.221L220.729 324.139C220.729 324.139 231.186 320.247 232.232 320.247C233.277 320.247 225.958 301.273 225.958 301.273Z" fill="#2F2E41"/>
<path d="M157.726 166.265C167.544 166.265 175.503 158.859 175.503 149.723C175.503 140.588 167.544 133.182 157.726 133.182C147.909 133.182 139.95 140.588 139.95 149.723C139.95 158.859 147.909 166.265 157.726 166.265Z" fill="#A0616A"/>
<path d="M140.211 162.616C140.211 162.616 148.577 160.67 151.191 162.616C153.805 164.562 154.328 168.941 157.988 169.427C161.648 169.914 164.785 169.914 165.308 170.4C165.83 170.887 177.856 184.509 177.856 184.509C177.856 184.509 185.176 188.401 186.744 193.753C188.313 199.105 203.998 217.106 206.09 219.052C208.181 220.998 192.496 230.728 187.267 234.134C182.039 237.539 166.876 238.999 162.171 231.215C157.465 223.43 131.846 172.833 140.211 162.616Z" fill="#289891"/>
<path d="M160.079 194.239L164.262 216.619C164.262 216.619 208.704 212.24 211.841 220.511C214.978 228.782 216.024 231.215 216.024 231.215L207.135 234.134L202.952 226.836C201.678 226.416 200.326 226.243 198.977 226.326C197.629 226.41 196.313 226.749 195.11 227.322C190.927 229.268 154.328 234.134 151.714 227.809C149.099 221.484 141.78 198.131 141.78 198.131L152.759 189.861L160.079 194.239Z" fill="#A0616A"/>
<path d="M150.088 164.663C150.088 164.663 162.693 189.374 161.648 196.185C160.602 202.997 156.942 198.132 156.942 198.132C156.942 198.132 152.237 191.32 150.145 195.212C148.054 199.105 145.44 204.456 143.348 203.97C141.257 203.483 129.754 167.481 136.028 164.075C142.303 160.67 150.088 164.663 150.088 164.663Z" fill="#F8DB45"/>
<path d="M123.656 133.591C136.621 133.591 147.131 123.811 147.131 111.747C147.131 99.683 136.621 89.9033 123.656 89.9033C110.691 89.9033 100.181 99.683 100.181 111.747C100.181 123.811 110.691 133.591 123.656 133.591Z" fill="#2F2E41"/>
<path d="M103.408 129.835C106.446 131.878 109.966 133.215 113.673 133.733C117.381 134.251 121.167 133.935 124.717 132.812C128.266 131.689 131.475 129.792 134.074 127.278C136.674 124.765 138.589 121.708 139.659 118.365C139.254 121.361 138.186 124.247 136.522 126.839C134.858 129.432 132.635 131.676 129.992 133.428C127.35 135.181 124.345 136.405 121.169 137.023C117.992 137.64 114.712 137.638 111.537 137.017C108.361 136.396 105.358 135.169 102.718 133.413C100.077 131.658 97.8566 129.412 96.1961 126.817C94.5356 124.223 93.4712 121.336 93.0702 118.339C92.6691 115.343 92.9401 112.301 93.8659 109.407C93.3401 113.296 93.9485 117.244 95.6273 120.838C97.3062 124.432 99.9936 127.54 103.408 129.835Z" fill="#2F2E41"/>
<path d="M142.827 160.167C152.334 160.167 160.042 152.995 160.042 144.148C160.042 135.301 152.334 128.13 142.827 128.13C133.319 128.13 125.612 135.301 125.612 144.148C125.612 152.995 133.319 160.167 142.827 160.167Z" fill="#2F2E41"/>
<path d="M157.303 149.245C165.73 149.245 172.562 144.274 172.562 138.141C172.562 132.009 165.73 127.037 157.303 127.037C148.876 127.037 142.044 132.009 142.044 138.141C142.044 144.274 148.876 149.245 157.303 149.245Z" fill="#2F2E41"/>
<path d="M157.988 157.021C159.865 157.021 161.386 154.516 161.386 151.426C161.386 148.336 159.865 145.831 157.988 145.831C156.111 145.831 154.589 148.336 154.589 151.426C154.589 154.516 156.111 157.021 157.988 157.021Z" fill="#A0616A"/>
<path d="M204.638 233.921C204.638 233.921 213.894 228.98 215.612 230.219C217.331 231.458 218.094 235.335 218.094 235.335L207.397 239.242L204.26 233.89L204.638 233.921Z" fill="#2F2E41"/>
<path d="M160.531 402.54V343.096" stroke="#3F3D56" stroke-width="2" stroke-miterlimit="10"/>
<path d="M160.531 351.503C165.52 351.503 169.565 347.739 169.565 343.096C169.565 338.454 165.52 334.69 160.531 334.69C155.542 334.69 151.497 338.454 151.497 343.096C151.497 347.739 155.542 351.503 160.531 351.503Z" fill="#3F3D56"/>
<path d="M160.531 379.733C160.531 379.733 159.241 353.904 132.784 356.907L160.531 379.733Z" fill="#3F3D56"/>
<path d="M435.665 358.505V299.062" stroke="#3F3D56" stroke-width="2" stroke-miterlimit="10"/>
<path d="M435.665 307.468C440.654 307.468 444.699 303.704 444.699 299.062C444.699 294.419 440.654 290.655 435.665 290.655C430.676 290.655 426.631 294.419 426.631 299.062C426.631 303.704 430.676 307.468 435.665 307.468Z" fill="#3F3D56"/>
<path d="M435.665 335.698C435.665 335.698 434.375 309.87 407.918 312.872L435.665 335.698Z" fill="#3F3D56"/>
<path d="M547.219 359.865V240.977" stroke="#3F3D56" stroke-width="2" stroke-miterlimit="10"/>
<path d="M547.219 249.383C552.208 249.383 556.253 245.62 556.253 240.977C556.253 236.335 552.208 232.571 547.219 232.571C542.23 232.571 538.185 236.335 538.185 240.977C538.185 245.62 542.23 249.383 547.219 249.383Z" fill="#3F3D56"/>
<path d="M547.219 275.212C547.219 275.212 548.51 249.383 574.966 252.386L547.219 275.212Z" fill="#3F3D56"/>
<path d="M547.219 357.554C547.219 357.554 541.412 310.028 574.966 307.626" stroke="#3F3D56" stroke-width="2" stroke-miterlimit="10"/>
<path d="M574.966 316.032C579.955 316.032 584 312.269 584 307.626C584 302.984 579.955 299.22 574.966 299.22C569.977 299.22 565.932 302.984 565.932 307.626C565.932 312.269 569.977 316.032 574.966 316.032Z" fill="#3F3D56"/>
<g clip-path="url(#clip0)">
<path d="M78.3957 234.788C82.1424 233.899 85.4056 231.655 87.4672 228.547C89.5288 225.44 90.22 221.725 89.3888 218.219C88.5575 214.713 86.2719 211.704 83.0348 209.853C79.7976 208.002 75.8741 207.461 72.1273 208.35C68.3805 209.238 65.1174 211.483 63.0558 214.59C60.9942 217.697 60.3029 221.412 61.1342 224.918C61.9654 228.424 64.251 231.433 67.4882 233.284C70.7253 235.135 74.6489 235.676 78.3957 234.788ZM72.9079 219.509C73.2323 220.877 72.7044 222.175 71.7297 222.406C70.7549 222.637 69.7005 221.714 69.3761 220.346C69.0517 218.978 69.5795 217.68 70.5543 217.449C71.5291 217.218 72.5835 218.141 72.9079 219.509ZM69.315 225.713C69.4918 225.556 69.7258 225.469 69.9654 225.472C70.2051 225.475 70.4308 225.568 70.5928 225.73C71.3437 226.481 72.2973 227.026 73.3576 227.311C74.4179 227.596 75.5475 227.61 76.6327 227.352C77.7181 227.095 78.7211 226.575 79.5407 225.845C80.3603 225.114 80.9675 224.199 81.3013 223.191C81.3364 223.082 81.3937 222.981 81.4699 222.892C81.5461 222.804 81.6397 222.73 81.7453 222.675C81.8509 222.619 81.9665 222.584 82.0853 222.571C82.2041 222.558 82.3238 222.566 82.4376 222.597C82.5513 222.628 82.6569 222.679 82.7481 222.749C82.8394 222.819 82.9145 222.905 82.9693 223.004C83.024 223.102 83.0572 223.21 83.0671 223.322C83.0769 223.433 83.0631 223.546 83.0265 223.654C82.5973 224.951 81.8166 226.127 80.7629 227.067C79.7093 228.006 78.4198 228.674 77.0245 229.004C75.6293 229.336 74.1771 229.317 72.814 228.951C71.4508 228.585 70.2249 227.884 69.2594 226.918C69.0974 226.756 69.0122 226.539 69.0226 226.312C69.033 226.086 69.1382 225.871 69.315 225.713ZM78.7933 220.731C77.8185 220.962 76.7641 220.039 76.4397 218.671C76.1153 217.303 76.6432 216.005 77.618 215.774C78.5928 215.543 79.6472 216.466 79.9715 217.834C80.2959 219.202 79.7681 220.5 78.7933 220.731Z" fill="white"/>
</g>
<g clip-path="url(#clip1)">
<path d="M347 82C351.243 82 355.313 80.4196 358.314 77.6066C361.314 74.7936 363 70.9782 363 67C363 63.0218 361.314 59.2064 358.314 56.3934C355.313 53.5804 351.243 52 347 52C342.757 52 338.687 53.5804 335.686 56.3934C332.686 59.2064 331 63.0218 331 67C331 70.9782 332.686 74.7936 335.686 77.6066C338.687 80.4196 342.757 82 347 82ZM345 64.1875C345 65.74 344.104 67 343 67C341.896 67 341 65.74 341 64.1875C341 62.635 341.896 61.375 343 61.375C344.104 61.375 345 62.635 345 64.1875ZM339.57 75.3119C339.34 75.1875 339.173 74.9828 339.104 74.7426C339.035 74.5025 339.071 74.2466 339.204 74.0312C339.994 72.7481 341.13 71.6826 342.499 70.942C343.867 70.2014 345.42 69.8118 347 69.8125C348.58 69.8122 350.132 70.2019 351.501 70.9425C352.87 71.6831 354.006 72.7483 354.796 74.0312C354.927 74.2465 354.961 74.5013 354.892 74.7402C354.823 74.9792 354.655 75.1827 354.427 75.3065C354.198 75.4303 353.926 75.4643 353.671 75.401C353.416 75.3377 353.198 75.1823 353.064 74.9688C352.45 73.9706 351.566 73.1418 350.501 72.5658C349.437 71.9897 348.229 71.6868 347 71.6875C345.771 71.6868 344.563 71.9897 343.499 72.5658C342.434 73.1418 341.55 73.9706 340.936 74.9688C340.803 75.1841 340.585 75.3412 340.329 75.4055C340.073 75.4699 339.8 75.4362 339.57 75.3119ZM351 67C349.896 67 349 65.74 349 64.1875C349 62.635 349.896 61.375 351 61.375C352.104 61.375 353 62.635 353 64.1875C353 65.74 352.104 67 351 67Z" fill="white"/>
</g>
<defs>
<clipPath id="clip0">
<rect width="29.0379" height="27.171" fill="white" transform="translate(58 211.699) rotate(-13.3383)"/>
</clipPath>
<clipPath id="clip1">
<rect width="32" height="30" fill="white" transform="translate(331 52)"/>
</clipPath>
</defs>
</svg>
